<mxfile host="Electron" modified="2023-09-12T12:04:40.814Z" agent="Mozilla/5.0 (Macintosh; Intel Mac OS X 10_15_7) AppleWebKit/537.36 (KHTML, like Gecko) draw.io/21.6.8 Chrome/114.0.5735.289 Electron/25.5.0 Safari/537.36" etag="ZuIDuTLao02GmX8ESkfz" version="21.6.8" type="device">
  <diagram name="페이지-1" id="p7uda4HkUwA0_gmycpkg">
    <mxGraphModel dx="4776" dy="2180" grid="1" gridSize="10" guides="1" tooltips="1" connect="1" arrows="1" fold="1" page="1" pageScale="1" pageWidth="827" pageHeight="1169" math="0" shadow="0">
      <root>
        <mxCell id="0" />
        <mxCell id="1" parent="0" />
        <mxCell id="fwiJSxfvxOO9zAmgHyq2-1" value="" style="rounded=0;whiteSpace=wrap;html=1;" vertex="1" parent="1">
          <mxGeometry x="1660" y="360" width="1030" height="600" as="geometry" />
        </mxCell>
        <mxCell id="fwiJSxfvxOO9zAmgHyq2-2" value="" style="shape=folder;fontStyle=1;spacingTop=10;tabWidth=100;tabHeight=30;tabPosition=left;html=1;whiteSpace=wrap;" vertex="1" parent="1">
          <mxGeometry x="1890" y="670" width="760" height="220" as="geometry" />
        </mxCell>
        <mxCell id="fwiJSxfvxOO9zAmgHyq2-3" value="" style="shape=folder;fontStyle=1;spacingTop=10;tabWidth=100;tabHeight=30;tabPosition=left;html=1;whiteSpace=wrap;" vertex="1" parent="1">
          <mxGeometry x="1890" y="408" width="760" height="250" as="geometry" />
        </mxCell>
        <mxCell id="fwiJSxfvxOO9zAmgHyq2-4" value="" style="rounded=0;whiteSpace=wrap;html=1;" vertex="1" parent="1">
          <mxGeometry x="660" y="360" width="960" height="600" as="geometry" />
        </mxCell>
        <mxCell id="fwiJSxfvxOO9zAmgHyq2-5" value="" style="shape=folder;fontStyle=1;spacingTop=10;tabWidth=100;tabHeight=30;tabPosition=left;html=1;whiteSpace=wrap;" vertex="1" parent="1">
          <mxGeometry x="680" y="670" width="920" height="230" as="geometry" />
        </mxCell>
        <mxCell id="fwiJSxfvxOO9zAmgHyq2-6" value="" style="shape=folder;fontStyle=1;spacingTop=10;tabWidth=100;tabHeight=30;tabPosition=left;html=1;whiteSpace=wrap;" vertex="1" parent="1">
          <mxGeometry x="800" y="430" width="760" height="250" as="geometry" />
        </mxCell>
        <mxCell id="fwiJSxfvxOO9zAmgHyq2-7" value="&lt;i&gt;&amp;lt;&amp;lt;abstract&amp;gt;&amp;gt;&lt;br&gt;Factory&lt;/i&gt;" style="swimlane;fontStyle=1;align=center;verticalAlign=top;childLayout=stackLayout;horizontal=1;startSize=40;horizontalStack=0;resizeParent=1;resizeParentMax=0;resizeLast=0;collapsible=1;marginBottom=0;whiteSpace=wrap;html=1;" vertex="1" parent="1">
          <mxGeometry x="880" y="500" width="230" height="140" as="geometry" />
        </mxCell>
        <mxCell id="fwiJSxfvxOO9zAmgHyq2-8" value="+ field: type" style="text;strokeColor=none;fillColor=none;align=left;verticalAlign=top;spacingLeft=4;spacingRight=4;overflow=hidden;rotatable=0;points=[[0,0.5],[1,0.5]];portConstraint=eastwest;whiteSpace=wrap;html=1;" vertex="1" parent="fwiJSxfvxOO9zAmgHyq2-7">
          <mxGeometry y="40" width="230" height="26" as="geometry" />
        </mxCell>
        <mxCell id="fwiJSxfvxOO9zAmgHyq2-9" value="" style="line;strokeWidth=1;fillColor=none;align=left;verticalAlign=middle;spacingTop=-1;spacingLeft=3;spacingRight=3;rotatable=0;labelPosition=right;points=[];portConstraint=eastwest;strokeColor=inherit;" vertex="1" parent="fwiJSxfvxOO9zAmgHyq2-7">
          <mxGeometry y="66" width="230" height="8" as="geometry" />
        </mxCell>
        <mxCell id="fwiJSxfvxOO9zAmgHyq2-10" value="+ create(String name): Product&amp;nbsp;&lt;br&gt;# createProduct(String name): Product&lt;br&gt;&lt;i&gt;+ logging(Product): void&lt;/i&gt;" style="text;strokeColor=none;fillColor=none;align=left;verticalAlign=top;spacingLeft=4;spacingRight=4;overflow=hidden;rotatable=0;points=[[0,0.5],[1,0.5]];portConstraint=eastwest;whiteSpace=wrap;html=1;" vertex="1" parent="fwiJSxfvxOO9zAmgHyq2-7">
          <mxGeometry y="74" width="230" height="66" as="geometry" />
        </mxCell>
        <mxCell id="fwiJSxfvxOO9zAmgHyq2-11" value="&lt;i&gt;&amp;lt;&amp;lt;abstract&amp;gt;&amp;gt;&lt;br&gt;Product&lt;/i&gt;" style="swimlane;fontStyle=1;align=center;verticalAlign=top;childLayout=stackLayout;horizontal=1;startSize=40;horizontalStack=0;resizeParent=1;resizeParentMax=0;resizeLast=0;collapsible=1;marginBottom=0;whiteSpace=wrap;html=1;" vertex="1" parent="1">
          <mxGeometry x="1280" y="500" width="230" height="140" as="geometry" />
        </mxCell>
        <mxCell id="fwiJSxfvxOO9zAmgHyq2-12" value="+ field: type" style="text;strokeColor=none;fillColor=none;align=left;verticalAlign=top;spacingLeft=4;spacingRight=4;overflow=hidden;rotatable=0;points=[[0,0.5],[1,0.5]];portConstraint=eastwest;whiteSpace=wrap;html=1;" vertex="1" parent="fwiJSxfvxOO9zAmgHyq2-11">
          <mxGeometry y="40" width="230" height="26" as="geometry" />
        </mxCell>
        <mxCell id="fwiJSxfvxOO9zAmgHyq2-13" value="" style="line;strokeWidth=1;fillColor=none;align=left;verticalAlign=middle;spacingTop=-1;spacingLeft=3;spacingRight=3;rotatable=0;labelPosition=right;points=[];portConstraint=eastwest;strokeColor=inherit;" vertex="1" parent="fwiJSxfvxOO9zAmgHyq2-11">
          <mxGeometry y="66" width="230" height="8" as="geometry" />
        </mxCell>
        <mxCell id="fwiJSxfvxOO9zAmgHyq2-14" value="&lt;i&gt;+ getName(): String&lt;/i&gt;" style="text;strokeColor=none;fillColor=none;align=left;verticalAlign=top;spacingLeft=4;spacingRight=4;overflow=hidden;rotatable=0;points=[[0,0.5],[1,0.5]];portConstraint=eastwest;whiteSpace=wrap;html=1;" vertex="1" parent="fwiJSxfvxOO9zAmgHyq2-11">
          <mxGeometry y="74" width="230" height="66" as="geometry" />
        </mxCell>
        <mxCell id="fwiJSxfvxOO9zAmgHyq2-15" value="RamenFactory" style="swimlane;fontStyle=1;align=center;verticalAlign=top;childLayout=stackLayout;horizontal=1;startSize=40;horizontalStack=0;resizeParent=1;resizeParentMax=0;resizeLast=0;collapsible=1;marginBottom=0;whiteSpace=wrap;html=1;" vertex="1" parent="1">
          <mxGeometry x="880" y="730" width="230" height="140" as="geometry" />
        </mxCell>
        <mxCell id="fwiJSxfvxOO9zAmgHyq2-16" value="- FactoryName: String" style="text;strokeColor=none;fillColor=none;align=left;verticalAlign=top;spacingLeft=4;spacingRight=4;overflow=hidden;rotatable=0;points=[[0,0.5],[1,0.5]];portConstraint=eastwest;whiteSpace=wrap;html=1;" vertex="1" parent="fwiJSxfvxOO9zAmgHyq2-15">
          <mxGeometry y="40" width="230" height="26" as="geometry" />
        </mxCell>
        <mxCell id="fwiJSxfvxOO9zAmgHyq2-17" value="" style="line;strokeWidth=1;fillColor=none;align=left;verticalAlign=middle;spacingTop=-1;spacingLeft=3;spacingRight=3;rotatable=0;labelPosition=right;points=[];portConstraint=eastwest;strokeColor=inherit;" vertex="1" parent="fwiJSxfvxOO9zAmgHyq2-15">
          <mxGeometry y="66" width="230" height="8" as="geometry" />
        </mxCell>
        <mxCell id="fwiJSxfvxOO9zAmgHyq2-18" value="# createProduct(String name): Product&lt;br&gt;+ logging(Product): void" style="text;strokeColor=none;fillColor=none;align=left;verticalAlign=top;spacingLeft=4;spacingRight=4;overflow=hidden;rotatable=0;points=[[0,0.5],[1,0.5]];portConstraint=eastwest;whiteSpace=wrap;html=1;" vertex="1" parent="fwiJSxfvxOO9zAmgHyq2-15">
          <mxGeometry y="74" width="230" height="66" as="geometry" />
        </mxCell>
        <mxCell id="fwiJSxfvxOO9zAmgHyq2-19" value="Ramen" style="swimlane;fontStyle=1;align=center;verticalAlign=top;childLayout=stackLayout;horizontal=1;startSize=40;horizontalStack=0;resizeParent=1;resizeParentMax=0;resizeLast=0;collapsible=1;marginBottom=0;whiteSpace=wrap;html=1;" vertex="1" parent="1">
          <mxGeometry x="1280" y="730" width="230" height="140" as="geometry" />
        </mxCell>
        <mxCell id="fwiJSxfvxOO9zAmgHyq2-20" value="- name: String" style="text;strokeColor=none;fillColor=none;align=left;verticalAlign=top;spacingLeft=4;spacingRight=4;overflow=hidden;rotatable=0;points=[[0,0.5],[1,0.5]];portConstraint=eastwest;whiteSpace=wrap;html=1;" vertex="1" parent="fwiJSxfvxOO9zAmgHyq2-19">
          <mxGeometry y="40" width="230" height="26" as="geometry" />
        </mxCell>
        <mxCell id="fwiJSxfvxOO9zAmgHyq2-21" value="" style="line;strokeWidth=1;fillColor=none;align=left;verticalAlign=middle;spacingTop=-1;spacingLeft=3;spacingRight=3;rotatable=0;labelPosition=right;points=[];portConstraint=eastwest;strokeColor=inherit;" vertex="1" parent="fwiJSxfvxOO9zAmgHyq2-19">
          <mxGeometry y="66" width="230" height="8" as="geometry" />
        </mxCell>
        <mxCell id="fwiJSxfvxOO9zAmgHyq2-22" value="+ Ramen(String name)&lt;br&gt;+ getName(): String" style="text;strokeColor=none;fillColor=none;align=left;verticalAlign=top;spacingLeft=4;spacingRight=4;overflow=hidden;rotatable=0;points=[[0,0.5],[1,0.5]];portConstraint=eastwest;whiteSpace=wrap;html=1;" vertex="1" parent="fwiJSxfvxOO9zAmgHyq2-19">
          <mxGeometry y="74" width="230" height="66" as="geometry" />
        </mxCell>
        <mxCell id="fwiJSxfvxOO9zAmgHyq2-23" value="" style="endArrow=none;html=1;rounded=0;" edge="1" parent="1">
          <mxGeometry width="50" height="50" relative="1" as="geometry">
            <mxPoint x="840" y="800" as="sourcePoint" />
            <mxPoint x="840" y="600" as="targetPoint" />
          </mxGeometry>
        </mxCell>
        <mxCell id="fwiJSxfvxOO9zAmgHyq2-24" value="" style="endArrow=none;html=1;rounded=0;" edge="1" parent="1">
          <mxGeometry width="50" height="50" relative="1" as="geometry">
            <mxPoint x="1239" y="800" as="sourcePoint" />
            <mxPoint x="1239" y="600" as="targetPoint" />
          </mxGeometry>
        </mxCell>
        <mxCell id="fwiJSxfvxOO9zAmgHyq2-25" value="Extends" style="endArrow=block;endSize=16;endFill=0;html=1;rounded=0;" edge="1" parent="1">
          <mxGeometry x="0.0013" y="-21" width="160" relative="1" as="geometry">
            <mxPoint x="840" y="600" as="sourcePoint" />
            <mxPoint x="880" y="600.05" as="targetPoint" />
            <mxPoint as="offset" />
          </mxGeometry>
        </mxCell>
        <mxCell id="fwiJSxfvxOO9zAmgHyq2-26" value="Extends" style="endArrow=block;endSize=16;endFill=0;html=1;rounded=0;" edge="1" parent="1">
          <mxGeometry x="0.0013" y="-21" width="160" relative="1" as="geometry">
            <mxPoint x="1240" y="600" as="sourcePoint" />
            <mxPoint x="1280" y="600.05" as="targetPoint" />
            <mxPoint as="offset" />
          </mxGeometry>
        </mxCell>
        <mxCell id="fwiJSxfvxOO9zAmgHyq2-27" value="" style="endArrow=none;html=1;rounded=0;" edge="1" parent="1">
          <mxGeometry width="50" height="50" relative="1" as="geometry">
            <mxPoint x="1280" y="799.47" as="sourcePoint" />
            <mxPoint x="1240" y="799.47" as="targetPoint" />
          </mxGeometry>
        </mxCell>
        <mxCell id="fwiJSxfvxOO9zAmgHyq2-28" value="" style="endArrow=none;html=1;rounded=0;" edge="1" parent="1">
          <mxGeometry width="50" height="50" relative="1" as="geometry">
            <mxPoint x="880" y="799.47" as="sourcePoint" />
            <mxPoint x="840" y="799.47" as="targetPoint" />
          </mxGeometry>
        </mxCell>
        <mxCell id="fwiJSxfvxOO9zAmgHyq2-29" value="" style="endArrow=open;endFill=1;endSize=12;html=1;rounded=0;" edge="1" parent="1">
          <mxGeometry width="160" relative="1" as="geometry">
            <mxPoint x="1110" y="774.47" as="sourcePoint" />
            <mxPoint x="1280" y="774.47" as="targetPoint" />
          </mxGeometry>
        </mxCell>
        <mxCell id="fwiJSxfvxOO9zAmgHyq2-30" value="" style="endArrow=open;endFill=1;endSize=12;html=1;rounded=0;" edge="1" parent="1">
          <mxGeometry width="160" relative="1" as="geometry">
            <mxPoint x="1110" y="569.47" as="sourcePoint" />
            <mxPoint x="1280" y="569.47" as="targetPoint" />
          </mxGeometry>
        </mxCell>
        <mxCell id="fwiJSxfvxOO9zAmgHyq2-31" value="Creates &amp;gt;" style="text;html=1;align=center;verticalAlign=middle;resizable=0;points=[];autosize=1;strokeColor=none;fillColor=none;" vertex="1" parent="1">
          <mxGeometry x="1130" y="738" width="80" height="30" as="geometry" />
        </mxCell>
        <mxCell id="fwiJSxfvxOO9zAmgHyq2-32" value="Creates &amp;gt;" style="text;html=1;align=center;verticalAlign=middle;resizable=0;points=[];autosize=1;strokeColor=none;fillColor=none;" vertex="1" parent="1">
          <mxGeometry x="1140" y="530" width="80" height="30" as="geometry" />
        </mxCell>
        <mxCell id="fwiJSxfvxOO9zAmgHyq2-33" value="Framework" style="text;html=1;strokeColor=none;fillColor=none;align=center;verticalAlign=middle;whiteSpace=wrap;rounded=0;" vertex="1" parent="1">
          <mxGeometry x="800" y="430" width="100" height="30" as="geometry" />
        </mxCell>
        <mxCell id="fwiJSxfvxOO9zAmgHyq2-34" value="Concrete" style="text;html=1;strokeColor=none;fillColor=none;align=center;verticalAlign=middle;whiteSpace=wrap;rounded=0;" vertex="1" parent="1">
          <mxGeometry x="680" y="670" width="100" height="30" as="geometry" />
        </mxCell>
        <mxCell id="fwiJSxfvxOO9zAmgHyq2-35" value="Before Singleton" style="text;html=1;strokeColor=none;fillColor=none;align=center;verticalAlign=middle;whiteSpace=wrap;rounded=0;fontStyle=1" vertex="1" parent="1">
          <mxGeometry x="1077.5" y="360" width="205" height="30" as="geometry" />
        </mxCell>
        <mxCell id="fwiJSxfvxOO9zAmgHyq2-36" value="FactoryLogger" style="swimlane;fontStyle=1;align=center;verticalAlign=top;childLayout=stackLayout;horizontal=1;startSize=26;horizontalStack=0;resizeParent=1;resizeParentMax=0;resizeLast=0;collapsible=1;marginBottom=0;whiteSpace=wrap;html=1;" vertex="1" parent="1">
          <mxGeometry x="1670" y="720" width="190" height="160" as="geometry" />
        </mxCell>
        <mxCell id="fwiJSxfvxOO9zAmgHyq2-37" value="- logger: FactoryLogger&lt;br&gt;- logs: String" style="text;strokeColor=none;fillColor=none;align=left;verticalAlign=top;spacingLeft=4;spacingRight=4;overflow=hidden;rotatable=0;points=[[0,0.5],[1,0.5]];portConstraint=eastwest;whiteSpace=wrap;html=1;" vertex="1" parent="fwiJSxfvxOO9zAmgHyq2-36">
          <mxGeometry y="26" width="190" height="44" as="geometry" />
        </mxCell>
        <mxCell id="fwiJSxfvxOO9zAmgHyq2-38" value="" style="line;strokeWidth=1;fillColor=none;align=left;verticalAlign=middle;spacingTop=-1;spacingLeft=3;spacingRight=3;rotatable=0;labelPosition=right;points=[];portConstraint=eastwest;strokeColor=inherit;" vertex="1" parent="fwiJSxfvxOO9zAmgHyq2-36">
          <mxGeometry y="70" width="190" height="8" as="geometry" />
        </mxCell>
        <mxCell id="fwiJSxfvxOO9zAmgHyq2-39" value="- FactoryLogger()&lt;br&gt;+ getInstance(): FactoryLogger()&lt;br&gt;+ addLog(String log): void&lt;br&gt;+ getLog(): String" style="text;strokeColor=none;fillColor=none;align=left;verticalAlign=top;spacingLeft=4;spacingRight=4;overflow=hidden;rotatable=0;points=[[0,0.5],[1,0.5]];portConstraint=eastwest;whiteSpace=wrap;html=1;" vertex="1" parent="fwiJSxfvxOO9zAmgHyq2-36">
          <mxGeometry y="78" width="190" height="82" as="geometry" />
        </mxCell>
        <mxCell id="fwiJSxfvxOO9zAmgHyq2-40" value="&lt;i&gt;&amp;lt;&amp;lt;abstract&amp;gt;&amp;gt;&lt;br&gt;Factory&lt;/i&gt;" style="swimlane;fontStyle=1;align=center;verticalAlign=top;childLayout=stackLayout;horizontal=1;startSize=40;horizontalStack=0;resizeParent=1;resizeParentMax=0;resizeLast=0;collapsible=1;marginBottom=0;whiteSpace=wrap;html=1;" vertex="1" parent="1">
          <mxGeometry x="1940" y="480" width="230" height="114" as="geometry" />
        </mxCell>
        <mxCell id="fwiJSxfvxOO9zAmgHyq2-41" value="" style="line;strokeWidth=1;fillColor=none;align=left;verticalAlign=middle;spacingTop=-1;spacingLeft=3;spacingRight=3;rotatable=0;labelPosition=right;points=[];portConstraint=eastwest;strokeColor=inherit;" vertex="1" parent="fwiJSxfvxOO9zAmgHyq2-40">
          <mxGeometry y="40" width="230" height="8" as="geometry" />
        </mxCell>
        <mxCell id="fwiJSxfvxOO9zAmgHyq2-42" value="+ create(String name): Product&amp;nbsp;&lt;br&gt;# createProduct(String name): Product&lt;br&gt;&lt;i&gt;+ logging(Product): void&lt;/i&gt;" style="text;strokeColor=none;fillColor=none;align=left;verticalAlign=top;spacingLeft=4;spacingRight=4;overflow=hidden;rotatable=0;points=[[0,0.5],[1,0.5]];portConstraint=eastwest;whiteSpace=wrap;html=1;" vertex="1" parent="fwiJSxfvxOO9zAmgHyq2-40">
          <mxGeometry y="48" width="230" height="66" as="geometry" />
        </mxCell>
        <mxCell id="fwiJSxfvxOO9zAmgHyq2-43" value="&lt;i&gt;&amp;lt;&amp;lt;abstract&amp;gt;&amp;gt;&lt;br&gt;Product&lt;/i&gt;" style="swimlane;fontStyle=1;align=center;verticalAlign=top;childLayout=stackLayout;horizontal=1;startSize=40;horizontalStack=0;resizeParent=1;resizeParentMax=0;resizeLast=0;collapsible=1;marginBottom=0;whiteSpace=wrap;html=1;" vertex="1" parent="1">
          <mxGeometry x="2340" y="480" width="230" height="114" as="geometry" />
        </mxCell>
        <mxCell id="fwiJSxfvxOO9zAmgHyq2-44" value="" style="line;strokeWidth=1;fillColor=none;align=left;verticalAlign=middle;spacingTop=-1;spacingLeft=3;spacingRight=3;rotatable=0;labelPosition=right;points=[];portConstraint=eastwest;strokeColor=inherit;" vertex="1" parent="fwiJSxfvxOO9zAmgHyq2-43">
          <mxGeometry y="40" width="230" height="8" as="geometry" />
        </mxCell>
        <mxCell id="fwiJSxfvxOO9zAmgHyq2-45" value="&lt;i&gt;+ getName(): String&lt;/i&gt;" style="text;strokeColor=none;fillColor=none;align=left;verticalAlign=top;spacingLeft=4;spacingRight=4;overflow=hidden;rotatable=0;points=[[0,0.5],[1,0.5]];portConstraint=eastwest;whiteSpace=wrap;html=1;" vertex="1" parent="fwiJSxfvxOO9zAmgHyq2-43">
          <mxGeometry y="48" width="230" height="66" as="geometry" />
        </mxCell>
        <mxCell id="fwiJSxfvxOO9zAmgHyq2-46" value="RamenFactory" style="swimlane;fontStyle=1;align=center;verticalAlign=top;childLayout=stackLayout;horizontal=1;startSize=40;horizontalStack=0;resizeParent=1;resizeParentMax=0;resizeLast=0;collapsible=1;marginBottom=0;whiteSpace=wrap;html=1;" vertex="1" parent="1">
          <mxGeometry x="1940" y="720" width="230" height="140" as="geometry" />
        </mxCell>
        <mxCell id="fwiJSxfvxOO9zAmgHyq2-47" value="- FactoryName: String" style="text;strokeColor=none;fillColor=none;align=left;verticalAlign=top;spacingLeft=4;spacingRight=4;overflow=hidden;rotatable=0;points=[[0,0.5],[1,0.5]];portConstraint=eastwest;whiteSpace=wrap;html=1;" vertex="1" parent="fwiJSxfvxOO9zAmgHyq2-46">
          <mxGeometry y="40" width="230" height="26" as="geometry" />
        </mxCell>
        <mxCell id="fwiJSxfvxOO9zAmgHyq2-48" value="" style="line;strokeWidth=1;fillColor=none;align=left;verticalAlign=middle;spacingTop=-1;spacingLeft=3;spacingRight=3;rotatable=0;labelPosition=right;points=[];portConstraint=eastwest;strokeColor=inherit;" vertex="1" parent="fwiJSxfvxOO9zAmgHyq2-46">
          <mxGeometry y="66" width="230" height="8" as="geometry" />
        </mxCell>
        <mxCell id="fwiJSxfvxOO9zAmgHyq2-49" value="+ RamenFactory(String name)&lt;br&gt;# createProduct(String name): Product&lt;br&gt;+ logging(Product): void" style="text;strokeColor=none;fillColor=none;align=left;verticalAlign=top;spacingLeft=4;spacingRight=4;overflow=hidden;rotatable=0;points=[[0,0.5],[1,0.5]];portConstraint=eastwest;whiteSpace=wrap;html=1;" vertex="1" parent="fwiJSxfvxOO9zAmgHyq2-46">
          <mxGeometry y="74" width="230" height="66" as="geometry" />
        </mxCell>
        <mxCell id="fwiJSxfvxOO9zAmgHyq2-50" value="Ramen" style="swimlane;fontStyle=1;align=center;verticalAlign=top;childLayout=stackLayout;horizontal=1;startSize=40;horizontalStack=0;resizeParent=1;resizeParentMax=0;resizeLast=0;collapsible=1;marginBottom=0;whiteSpace=wrap;html=1;" vertex="1" parent="1">
          <mxGeometry x="2340" y="720" width="230" height="140" as="geometry" />
        </mxCell>
        <mxCell id="fwiJSxfvxOO9zAmgHyq2-51" value="- name: String" style="text;strokeColor=none;fillColor=none;align=left;verticalAlign=top;spacingLeft=4;spacingRight=4;overflow=hidden;rotatable=0;points=[[0,0.5],[1,0.5]];portConstraint=eastwest;whiteSpace=wrap;html=1;" vertex="1" parent="fwiJSxfvxOO9zAmgHyq2-50">
          <mxGeometry y="40" width="230" height="26" as="geometry" />
        </mxCell>
        <mxCell id="fwiJSxfvxOO9zAmgHyq2-52" value="" style="line;strokeWidth=1;fillColor=none;align=left;verticalAlign=middle;spacingTop=-1;spacingLeft=3;spacingRight=3;rotatable=0;labelPosition=right;points=[];portConstraint=eastwest;strokeColor=inherit;" vertex="1" parent="fwiJSxfvxOO9zAmgHyq2-50">
          <mxGeometry y="66" width="230" height="8" as="geometry" />
        </mxCell>
        <mxCell id="fwiJSxfvxOO9zAmgHyq2-53" value="+ Ramen(String name)&lt;br&gt;+ getName(): String" style="text;strokeColor=none;fillColor=none;align=left;verticalAlign=top;spacingLeft=4;spacingRight=4;overflow=hidden;rotatable=0;points=[[0,0.5],[1,0.5]];portConstraint=eastwest;whiteSpace=wrap;html=1;" vertex="1" parent="fwiJSxfvxOO9zAmgHyq2-50">
          <mxGeometry y="74" width="230" height="66" as="geometry" />
        </mxCell>
        <mxCell id="fwiJSxfvxOO9zAmgHyq2-54" value="" style="endArrow=open;endFill=1;endSize=12;html=1;rounded=0;" edge="1" parent="1">
          <mxGeometry width="160" relative="1" as="geometry">
            <mxPoint x="2170" y="519.47" as="sourcePoint" />
            <mxPoint x="2340" y="519.47" as="targetPoint" />
          </mxGeometry>
        </mxCell>
        <mxCell id="fwiJSxfvxOO9zAmgHyq2-55" value="Creates &amp;gt;" style="text;html=1;align=center;verticalAlign=middle;resizable=0;points=[];autosize=1;strokeColor=none;fillColor=none;" vertex="1" parent="1">
          <mxGeometry x="2200" y="480" width="80" height="30" as="geometry" />
        </mxCell>
        <mxCell id="fwiJSxfvxOO9zAmgHyq2-56" value="" style="endArrow=open;endFill=1;endSize=12;html=1;rounded=0;" edge="1" parent="1">
          <mxGeometry width="160" relative="1" as="geometry">
            <mxPoint x="2170" y="759.47" as="sourcePoint" />
            <mxPoint x="2340" y="759.47" as="targetPoint" />
          </mxGeometry>
        </mxCell>
        <mxCell id="fwiJSxfvxOO9zAmgHyq2-57" value="Creates &amp;gt;" style="text;html=1;align=center;verticalAlign=middle;resizable=0;points=[];autosize=1;strokeColor=none;fillColor=none;" vertex="1" parent="1">
          <mxGeometry x="2200" y="720" width="80" height="30" as="geometry" />
        </mxCell>
        <mxCell id="fwiJSxfvxOO9zAmgHyq2-58" value="Framework" style="text;html=1;strokeColor=none;fillColor=none;align=center;verticalAlign=middle;whiteSpace=wrap;rounded=0;" vertex="1" parent="1">
          <mxGeometry x="1890" y="408" width="100" height="30" as="geometry" />
        </mxCell>
        <mxCell id="fwiJSxfvxOO9zAmgHyq2-59" value="Concrete" style="text;html=1;strokeColor=none;fillColor=none;align=center;verticalAlign=middle;whiteSpace=wrap;rounded=0;" vertex="1" parent="1">
          <mxGeometry x="1890" y="670" width="100" height="30" as="geometry" />
        </mxCell>
        <mxCell id="fwiJSxfvxOO9zAmgHyq2-60" value="Use" style="endArrow=open;endSize=12;dashed=1;html=1;rounded=0;" edge="1" parent="1">
          <mxGeometry width="160" relative="1" as="geometry">
            <mxPoint x="1940" y="778.3299999999999" as="sourcePoint" />
            <mxPoint x="1860" y="778.3299999999999" as="targetPoint" />
          </mxGeometry>
        </mxCell>
        <mxCell id="fwiJSxfvxOO9zAmgHyq2-61" value="After Singleton" style="text;html=1;strokeColor=none;fillColor=none;align=center;verticalAlign=middle;whiteSpace=wrap;rounded=0;fontStyle=1" vertex="1" parent="1">
          <mxGeometry x="2167.5" y="360" width="205" height="30" as="geometry" />
        </mxCell>
        <mxCell id="fwiJSxfvxOO9zAmgHyq2-62" value="" style="endArrow=none;html=1;rounded=0;" edge="1" parent="1">
          <mxGeometry width="50" height="50" relative="1" as="geometry">
            <mxPoint x="1900" y="740" as="sourcePoint" />
            <mxPoint x="1900" y="540" as="targetPoint" />
          </mxGeometry>
        </mxCell>
        <mxCell id="fwiJSxfvxOO9zAmgHyq2-63" value="" style="endArrow=none;html=1;rounded=0;" edge="1" parent="1">
          <mxGeometry width="50" height="50" relative="1" as="geometry">
            <mxPoint x="2299" y="740" as="sourcePoint" />
            <mxPoint x="2299" y="540" as="targetPoint" />
          </mxGeometry>
        </mxCell>
        <mxCell id="fwiJSxfvxOO9zAmgHyq2-64" value="Extends" style="endArrow=block;endSize=16;endFill=0;html=1;rounded=0;" edge="1" parent="1">
          <mxGeometry x="0.0013" y="-21" width="160" relative="1" as="geometry">
            <mxPoint x="1900" y="540" as="sourcePoint" />
            <mxPoint x="1940" y="540.05" as="targetPoint" />
            <mxPoint as="offset" />
          </mxGeometry>
        </mxCell>
        <mxCell id="fwiJSxfvxOO9zAmgHyq2-65" value="Extends" style="endArrow=block;endSize=16;endFill=0;html=1;rounded=0;" edge="1" parent="1">
          <mxGeometry x="0.0013" y="-21" width="160" relative="1" as="geometry">
            <mxPoint x="2300" y="540" as="sourcePoint" />
            <mxPoint x="2340" y="540.05" as="targetPoint" />
            <mxPoint as="offset" />
          </mxGeometry>
        </mxCell>
        <mxCell id="fwiJSxfvxOO9zAmgHyq2-66" value="" style="endArrow=none;html=1;rounded=0;" edge="1" parent="1">
          <mxGeometry width="50" height="50" relative="1" as="geometry">
            <mxPoint x="2340" y="739.47" as="sourcePoint" />
            <mxPoint x="2300" y="739.47" as="targetPoint" />
          </mxGeometry>
        </mxCell>
        <mxCell id="fwiJSxfvxOO9zAmgHyq2-67" value="" style="endArrow=none;html=1;rounded=0;" edge="1" parent="1">
          <mxGeometry width="50" height="50" relative="1" as="geometry">
            <mxPoint x="1940" y="739.47" as="sourcePoint" />
            <mxPoint x="1900" y="739.47" as="targetPoint" />
          </mxGeometry>
        </mxCell>
      </root>
    </mxGraphModel>
  </diagram>
</mxfile>
